# xmcd
#
# Track frame offsets: 
#        150
#        20096
#        32848
#        50402
#        69222
#        86704
#        104246
#        121043
#        137520
#        155309
#        177979
#        195446
#        223805
#        251356
#        295159
#        313093
#        337453
#
# Disc length: 4762 seconds
#
# Revision: 0
# Processed by: cddbd v1.5.2PL0 Copyright (c) Steve Scherf et al.
# Submitted via: ExactAudioCopy v0.95a5
#
DISCID=fd129811
DTITLE=Various Artist - Blues Now Here! Box1 CD1
DYEAR=2007
DGENRE=Blues
TTITLE0=The Blues - TOSCHO
TTITLE1=The Fly - The BARRELHOUSE BROTHERS
TTITLE2=Last Dirty Deal - COCO MONTOYA
TTITLE3=Baby's Got a Train - MICHAEL POWERS
TTITLE4=Two Crazy Women - MASON CASEY
TTITLE5=Little Big Men - GEOFF ACHISON and The Souldiggers
TTITLE6=Lord Have Mercy - T and MASSON
TTITLE7=Something ain't right - BLUES BLEND
TTITLE8=Woodstock Nation - BIG HOUSE
TTITLE9=Wagging The Dog - GEOFF ACHISON
TTITLE10=She's My Harley Davidson - GEORGE TERRY
TTITLE11=Blues Walkin' By My Side - SONNY BLACK and The DUKES
TTITLE12=Voodoo in Bayon - ZYDECO PLAYBOYS
TTITLE13=Nasty Weather - BRAD KELSEY
TTITLE14=I want to spent X-mas with You - FERNANDO JONES
TTITLE15=I wanna drink a River - LARRY O'MOAN
TTITLE16=Yvonne - WILD T and The SPIRIT
EXTD=
EXTT0=
EXTT1=
EXTT2=
EXTT3=
EXTT4=
EXTT5=
EXTT6=
EXTT7=
EXTT8=
EXTT9=
EXTT10=
EXTT11=
EXTT12=
EXTT13=
EXTT14=
EXTT15=
EXTT16=
PLAYORDER=
